<?xml version="1.0" standalone="no"?>
<!DOCTYPE svg PUBLIC "-//W3C//DTD SVG 20010904//EN"
 "http://www.w3.org/TR/2001/REC-SVG-20010904/DTD/svg10.dtd">
<svg version="1.0" xmlns="http://www.w3.org/2000/svg"
 width="1024.000000pt" height="1024.000000pt" viewBox="0 0 1024.000000 1024.000000"
 preserveAspectRatio="xMidYMid meet">

<g transform="translate(0.000000,1024.000000) scale(0.100000,-0.100000)"
fill="#000000" stroke="none">
<path d="M3187 8280 c-253 -30 -509 -126 -710 -266 -117 -82 -309 -278 -386
-393 -143 -215 -221 -435 -250 -703 -7 -64 -11 -611 -11 -1618 l0 -1520 3285
2 3285 3 0 1582 c0 1719 2 1642 -56 1848 -33 117 -126 310 -206 427 -78 115
-244 283 -361 365 -173 122 -395 216 -612 260 -85 17 -202 18 -2000 19 -1050
1 -1941 -2 -1978 -6z m79 -952 c-3 -24 -24 -203 -46 -398 -144 -1290 -241
-2140 -245 -2167 l-6 -33 351 0 351 0 -6 -32 c-5 -32 -55 -448 -55 -461 0 -4
-297 -7 -660 -7 -523 0 -658 3 -655 13 2 6 29 237 60 512 31 275 82 734 115
1020 32 286 73 644 90 795 17 151 44 389 61 529 16 139 29 257 29 262 0 5 138
9 311 9 l311 0 -6 -42z m2147 27 c152 -32 268 -121 329 -252 53 -112 50 -237
-18 -755 l-7 -48 -298 0 c-233 0 -299 3 -299 13 0 6 13 109 29 226 42 316 45
311 -181 311 -158 0 -159 0 -183 -26 -13 -14 -26 -42 -29 -62 -16 -101 -226
-1913 -226 -1950 0 -32 6 -49 25 -67 23 -24 28 -25 169 -25 156 0 186 6 211
43 14 22 75 460 75 540 l0 28 -70 -2 c-39 -1 -72 0 -74 2 -1 2 11 112 28 244
l31 240 373 3 c353 2 373 1 369 -15 -3 -10 -8 -49 -12 -88 -14 -155 -96 -856
-110 -940 -15 -93 -40 -176 -70 -236 -71 -137 -219 -253 -380 -295 -65 -18
-767 -20 -847 -3 -214 45 -338 208 -338 445 0 45 27 322 60 615 34 294 87 770
120 1059 47 422 64 541 84 606 64 201 229 352 431 394 22 4 198 8 390 9 269 0
366 -3 418 -14z m1969 0 c253 -53 394 -242 374 -500 -3 -44 -19 -192 -36 -330
-16 -137 -30 -253 -30 -257 0 -5 -135 -8 -300 -8 -233 0 -300 3 -300 13 0 6
14 113 30 237 17 123 30 237 30 253 0 18 -11 39 -29 58 l-29 29 -149 0 c-156
0 -179 -6 -203 -50 -6 -10 -46 -326 -90 -702 -44 -376 -94 -800 -111 -943 -39
-318 -41 -385 -15 -414 18 -20 29 -21 178 -21 163 0 189 5 208 41 8 14 79 526
80 572 0 4 133 7 295 7 l295 0 -5 -37 c-3 -21 -17 -141 -31 -268 -13 -126 -29
-257 -34 -289 -38 -240 -191 -418 -423 -491 -77 -25 -82 -25 -454 -25 -413 0
-445 4 -556 62 -73 39 -131 102 -169 185 -40 85 -47 200 -24 393 9 74 63 536
121 1025 58 490 112 926 121 969 49 254 214 433 449 490 86 21 711 22 807 1z"/>
<path d="M1846 3398 c10 -84 59 -266 93 -353 208 -521 699 -885 1269 -941 l72
-7 0 677 0 676 -720 0 -721 0 7 -52z"/>
<path d="M3588 2775 l2 -675 1530 0 1530 0 0 675 0 675 -1532 0 -1533 0 3
-675z"/>
<path d="M6960 2774 l0 -677 73 7 c496 49 927 325 1183 759 89 151 158 349
182 525 l9 62 -724 0 -723 0 0 -676z"/>
</g>
</svg>
