<svg width="117" height="118" viewBox="0 0 117 118" fill="none" xmlns="http://www.w3.org/2000/svg">
<path d="M99.2845 17.875C91.2313 9.73154 80.971 4.18581 69.801 1.93911C58.631 -0.307595 47.053 0.845636 36.5311 5.25297C26.0092 9.6603 17.0161 17.1238 10.6888 26.6996C4.36153 36.2755 0.984375 47.5336 0.984375 59.0504C0.984375 70.5671 4.36153 81.8252 10.6888 91.4011C17.0161 100.977 26.0092 108.44 36.5311 112.848C47.053 117.255 58.631 118.408 69.801 116.162C80.971 113.915 91.2313 108.369 99.2845 100.226C104.672 94.8412 108.949 88.4293 111.868 81.3613C114.787 74.2934 116.29 66.7099 116.29 59.0504C116.29 51.3908 114.787 43.8073 111.868 36.7394C108.949 29.6714 104.672 23.2595 99.2845 17.875ZM24.0831 24.2075C32.056 16.1341 42.5621 11.123 53.7938 10.0364C52.7112 21.3938 47.7341 32.0105 39.7247 40.0472C31.7665 48.1323 21.2656 53.1526 10.0361 54.2408C11.12 42.8818 16.0876 32.2608 24.0831 24.2075ZM10.0084 63.2384C23.6096 62.1402 36.3743 56.1608 45.9979 46.3797C55.6764 36.6511 61.5938 23.742 62.6804 9.98597C74.1314 10.9514 84.8738 15.9882 93.001 24.2026C101.128 32.417 106.114 43.2775 107.075 54.8567C93.4785 55.9825 80.719 61.9531 71.0697 71.7046C61.4205 81.4561 55.5082 94.3552 54.3862 108.104C42.9353 107.138 32.1929 102.101 24.0657 93.8869C15.9385 85.6725 10.9522 74.812 9.99183 63.2328L10.0084 63.2384ZM93.0168 93.8932C85.0423 101.964 74.5371 106.975 63.3061 108.064C64.4121 96.7158 69.3766 86.1066 77.3531 78.0457C85.3295 69.9848 95.824 64.9712 107.047 63.8599C105.968 75.2167 101.006 85.8375 93.0168 93.8932Z" fill="white"/>
</svg>
