<svg width="91" height="91" viewBox="0 0 91 91" fill="none" xmlns="http://www.w3.org/2000/svg">
<path d="M88.1164 22.9591L68.0409 2.88798C67.3734 2.22038 66.581 1.69081 65.7089 1.3295C64.8367 0.968191 63.902 0.782227 62.9579 0.782227C62.0139 0.782227 61.0792 0.968191 60.207 1.3295C59.3349 1.69081 58.5425 2.22038 57.875 2.88798L2.48187 58.2811C1.81155 58.9461 1.28009 59.7378 0.918407 60.61C0.556722 61.4822 0.37202 62.4176 0.375036 63.3618V83.4374C0.375036 85.3436 1.13229 87.1718 2.48021 88.5197C3.82812 89.8676 5.65629 90.6249 7.56254 90.6249H83.0313C83.9844 90.6249 84.8985 90.2463 85.5724 89.5723C86.2464 88.8984 86.625 87.9843 86.625 87.0311C86.625 86.078 86.2464 85.1639 85.5724 84.49C84.8985 83.816 83.9844 83.4374 83.0313 83.4374H37.8039L88.1164 33.1249C88.784 32.4574 89.3136 31.665 89.6749 30.7929C90.0362 29.9208 90.2222 28.986 90.2222 28.042C90.2222 27.098 90.0362 26.1632 89.6749 25.2911C89.3136 24.4189 88.784 23.6265 88.1164 22.9591ZM27.6381 83.4374H7.56254V63.3618L47.0938 23.8306L67.1694 43.9061L27.6381 83.4374ZM72.25 38.8255L52.1789 18.7499L62.9602 7.96864L83.0313 28.0442L72.25 38.8255Z" fill="white"/>
</svg>
