<svg width="115" height="80" viewBox="0 0 115 80" fill="none" xmlns="http://www.w3.org/2000/svg">
<path d="M114.237 27.4757L102.772 4.53856C102.35 3.69433 101.766 2.94156 101.052 2.32323C100.339 1.70491 99.511 1.23315 98.6154 0.934887C97.7198 0.636626 96.7742 0.51771 95.8326 0.584929C94.891 0.652148 93.9719 0.904186 93.1277 1.32665L81.9557 6.91044L58.4211 0.684266C57.8172 0.52712 57.1832 0.52712 56.5793 0.684266L33.0447 6.91044L21.8727 1.32665C21.0285 0.904186 20.1094 0.652148 19.1678 0.584929C18.2262 0.51771 17.2806 0.636626 16.385 0.934887C15.4894 1.23315 14.6613 1.70491 13.948 2.32323C13.2347 2.94156 12.6503 3.69433 12.2279 4.53856L0.763872 27.4712C0.341409 28.3153 0.0893714 29.2345 0.0221525 30.176C-0.0450664 31.1176 0.0738499 32.0632 0.372111 32.9588C0.670371 33.8544 1.14213 34.6825 1.76046 35.3958C2.37878 36.1091 3.13155 36.6936 3.97579 37.1159L16.1047 43.1849L41.0318 60.9874C41.3991 61.2487 41.812 61.4392 42.2492 61.5489L70.9992 68.7364C71.6013 68.8874 72.2322 68.8799 72.8305 68.7146C73.4288 68.5492 73.9741 68.2318 74.4133 67.7931L99.1518 43.0501L111.02 37.1159C112.724 36.263 114.019 34.7684 114.622 32.9607C115.224 31.153 115.084 29.1801 114.232 27.4757H114.237ZM89.5789 42.4661L74.1213 30.0856C73.4288 29.5311 72.5557 29.2522 71.6699 29.3028C70.7842 29.3534 69.9485 29.7298 69.3236 30.3597C61.3231 38.4186 52.4061 37.3989 46.719 33.8052L66.1432 14.938H80.4328L92.6561 39.38L89.5789 42.4661ZM18.6563 7.75048L27.8518 12.3415L16.3652 35.2741L7.1877 30.6876L18.6563 7.75048ZM70.7656 61.2659L44.6615 54.7432L22.56 38.9577L35.1381 13.8015L57.5002 7.87626L61.9025 9.03974L41.6877 28.6616L41.6518 28.702C40.8908 29.463 40.3104 30.3851 39.9535 31.4003C39.5965 32.4155 39.4721 33.4979 39.5894 34.5677C39.7067 35.6374 40.0627 36.6672 40.6311 37.5809C41.1995 38.4947 41.9659 39.2692 42.8736 39.8472C52.1096 45.7454 63.2547 44.7886 72.0324 37.6011L84.4533 47.5782L70.7656 61.2659ZM98.6172 35.2696L87.1531 12.3595L96.3441 7.75048L107.813 30.6876L98.6172 35.2696ZM59.1982 76.8987C59.0041 77.6754 58.5561 78.3651 57.9254 78.8583C57.2947 79.3514 56.5174 79.6199 55.7168 79.621C55.4215 79.6206 55.1274 79.5844 54.8408 79.5132L36.1219 74.8323C35.6841 74.7243 35.2709 74.5337 34.9045 74.2708L23.0676 65.8165C22.3398 65.245 21.8604 64.4149 21.7294 63.4988C21.5983 62.5828 21.8257 61.6515 22.3641 60.8989C22.9025 60.1463 23.7104 59.6304 24.6197 59.4586C25.5289 59.2868 26.4694 59.4724 27.2453 59.9767L38.5252 68.0356L56.6018 72.5458C57.5262 72.7771 58.321 73.366 58.8113 74.1831C59.3015 75.0003 59.4472 75.9787 59.2162 76.9032L59.1982 76.8987Z" fill="white"/>
</svg>
