<svg width="115" height="80" viewBox="0 0 115 80" fill="none" xmlns="http://www.w3.org/2000/svg">
<path d="M111.406 71.875H107.813C106.859 71.875 105.945 71.4964 105.271 70.8224C104.597 70.1485 104.219 69.2344 104.219 68.2812V53.9062C104.219 52.9531 104.597 52.039 105.271 51.3651C105.945 50.6911 106.859 50.3125 107.813 50.3125H111.406C112.359 50.3125 113.273 49.9339 113.947 49.2599C114.621 48.586 115 47.6719 115 46.7188C115 45.7656 114.621 44.8515 113.947 44.1776C113.273 43.5036 112.359 43.125 111.406 43.125H107.813C104.953 43.125 102.211 44.2609 100.189 46.2828C98.1671 48.3046 97.0313 51.0469 97.0313 53.9062V57.5H89.4844C88.7341 53.8598 86.8758 50.541 84.1646 47.9986C81.4534 45.4563 78.0221 43.8152 74.3412 43.3002L58.1469 4.4248C57.6014 3.11459 56.6801 1.9952 55.4994 1.20776C54.3186 0.420321 52.9312 7.38678e-05 51.5119 0H10.7813C8.87502 0 7.04685 0.757252 5.69893 2.10517C4.35101 3.45309 3.59376 5.28126 3.59376 7.1875V50.3125C1.59155 52.9821 0.372297 56.1565 0.0726146 59.4801C-0.227068 62.8036 0.404663 66.1449 1.89702 69.1296C3.38938 72.1143 5.6834 74.6245 8.52203 76.3789C11.3607 78.1333 14.6317 79.0625 17.9688 79.0625H71.875C76.0158 79.0574 80.0282 77.6249 83.2359 75.0064C86.4436 72.3878 88.6504 68.7434 89.4844 64.6875H97.0313V68.2812C97.0313 71.1406 98.1671 73.8829 100.189 75.9047C102.211 77.9266 104.953 79.0625 107.813 79.0625H111.406C112.359 79.0625 113.273 78.6839 113.947 78.0099C114.621 77.336 115 76.4219 115 75.4688C115 74.5156 114.621 73.6015 113.947 72.9276C113.273 72.2536 112.359 71.875 111.406 71.875ZM66.4844 43.125H28.75V7.1875H51.5119L66.4844 43.125ZM21.5625 7.1875V43.125H17.9688C15.4945 43.1229 13.0468 43.6353 10.7813 44.6299V7.1875H21.5625ZM71.875 71.875H17.9688C15.1094 71.875 12.3671 70.7391 10.3453 68.7172C8.32339 66.6954 7.18751 63.9531 7.18751 61.0938C7.18751 58.2344 8.32339 55.4921 10.3453 53.4703C12.3671 51.4484 15.1094 50.3125 17.9688 50.3125H71.875C74.7344 50.3125 77.4766 51.4484 79.4985 53.4703C81.5204 55.4921 82.6563 58.2344 82.6563 61.0938C82.6563 63.9531 81.5204 66.6954 79.4985 68.7172C77.4766 70.7391 74.7344 71.875 71.875 71.875ZM75.4688 61.0938C75.4688 62.0469 75.0901 62.961 74.4162 63.6349C73.7422 64.3089 72.8281 64.6875 71.875 64.6875H17.9688C17.0156 64.6875 16.1016 64.3089 15.4276 63.6349C14.7536 62.961 14.375 62.0469 14.375 61.0938C14.375 60.1406 14.7536 59.2265 15.4276 58.5526C16.1016 57.8786 17.0156 57.5 17.9688 57.5H71.875C72.8281 57.5 73.7422 57.8786 74.4162 58.5526C75.0901 59.2265 75.4688 60.1406 75.4688 61.0938Z" fill="white"/>
</svg>
