<svg width="89" height="89" viewBox="0 0 89 89" fill="none" xmlns="http://www.w3.org/2000/svg">
<path d="M70.0098 51.7056L56.3162 44.8594C55.7772 44.5908 55.1768 44.4692 54.5757 44.5068C53.9747 44.5443 53.3941 44.7398 52.8928 45.0734L46.6065 49.2666C43.7208 47.6804 41.3461 45.3059 39.7597 42.4205L43.9534 36.1349C44.287 35.6335 44.4825 35.0531 44.5201 34.452C44.5576 33.851 44.436 33.2507 44.1674 32.7118L37.3206 19.0195C37.0368 18.4464 36.5981 17.9643 36.0543 17.6278C35.5105 17.2912 34.8833 17.1137 34.2438 17.1154C29.704 17.1154 25.3503 18.9186 22.1402 22.1284C18.9301 25.3381 17.1267 29.6915 17.1267 34.2308C17.1381 44.2137 21.1092 53.7845 28.1689 60.8436C35.2286 67.9026 44.8003 71.8733 54.7842 71.8846C57.032 71.8846 59.2579 71.4419 61.3346 70.5818C63.4113 69.7217 65.2983 68.4609 66.8878 66.8716C68.4772 65.2823 69.7381 63.3955 70.5983 61.319C71.4585 59.2425 71.9012 57.0169 71.9012 54.7692C71.9017 54.1333 71.725 53.5098 71.3909 52.9687C71.0568 52.4275 70.5786 51.9902 70.0098 51.7056ZM54.7842 65.0385C46.6155 65.0294 38.7839 61.7807 33.0078 56.0051C27.2316 50.2295 23.9826 42.3987 23.9736 34.2308C23.9729 31.8565 24.795 29.5554 26.3 27.719C27.805 25.8826 29.8999 24.6243 32.2282 24.1584L37.1408 33.9997L32.96 40.2212C32.6476 40.6898 32.4556 41.2282 32.4011 41.7887C32.3466 42.3493 32.4313 42.9146 32.6476 43.4346C35.097 49.2554 39.7281 53.8861 45.5496 56.3353C46.0712 56.5612 46.6408 56.6537 47.2071 56.6044C47.7734 56.5551 48.3185 56.3655 48.7932 56.0529L55.0452 51.8853L64.8875 56.7974C64.4179 59.1282 63.154 61.2238 61.3115 62.7267C59.469 64.2296 57.162 65.0467 54.7842 65.0385ZM44.514 1.05977e-06C36.8304 -0.00167543 29.2773 1.98576 22.5899 5.76887C15.9024 9.55197 10.3084 15.0019 6.35231 21.5881C2.39624 28.1743 0.2129 35.6724 0.0147974 43.3527C-0.183305 51.0329 1.61058 58.6336 5.22185 65.415L0.364892 79.9845C-0.0374235 81.1907 -0.095809 82.4852 0.19628 83.7228C0.48837 84.9604 1.11939 86.0921 2.01862 86.9913C2.91784 87.8904 4.04974 88.5214 5.28744 88.8135C6.52514 89.1055 7.81973 89.0471 9.02611 88.6449L23.597 83.7884C29.5656 86.9626 36.1789 88.7356 42.9351 88.9726C49.6912 89.2097 56.4126 87.9046 62.589 85.1564C68.7654 82.4083 74.2345 78.2893 78.5812 73.1121C82.9279 67.935 86.0379 61.8357 87.6751 55.2773C89.3124 48.7188 89.4338 41.8736 88.0303 35.2613C86.6268 28.6489 83.7352 22.4431 79.5749 17.115C75.4147 11.7869 70.0952 7.47651 64.0201 4.51099C57.9451 1.54547 51.2743 0.00277368 44.514 1.05977e-06ZM44.514 82.1538C37.8939 82.1583 31.3899 80.4152 25.6596 77.1005C25.24 76.8572 24.7736 76.7059 24.2911 76.6564C23.8086 76.607 23.3211 76.6607 22.8609 76.8139L6.85653 82.1538L12.1928 66.151C12.3466 65.6911 12.4009 65.2039 12.3523 64.7214C12.3036 64.239 12.1529 63.7724 11.9103 63.3526C7.75933 56.1766 6.09271 47.8314 7.16903 39.6117C8.24536 31.3919 12.0044 23.7571 17.8631 17.8915C23.7219 12.026 31.3527 8.25762 39.5718 7.17102C47.791 6.08442 56.1391 7.74032 63.321 11.8819C70.5029 16.0234 76.1173 22.419 79.293 30.0767C82.4688 37.7343 83.0285 46.2258 80.8852 54.2339C78.742 62.242 74.0157 69.3191 67.4394 74.3673C60.8632 79.4154 52.8047 82.1525 44.514 82.1538Z" fill="white"/>
</svg>
